<?xml version="1.0" encoding="UTF-8"?>
<!DOCTYPE svg PUBLIC "-//W3C//DTD SVG 1.1//EN" "http://www.w3.org/Graphics/SVG/1.1/DTD/svg11.dtd">
<svg xmlns="http://www.w3.org/2000/svg" version="1.1" width="1024px" height="1024px" style="shape-rendering:geometricPrecision; text-rendering:geometricPrecision; image-rendering:optimizeQuality; fill-rule:evenodd; clip-rule:evenodd" xmlns:xlink="http://www.w3.org/1999/xlink">
<g><path style="opacity:1" fill="#21adee" d="M 274.5,141.5 C 433.834,141.333 593.167,141.5 752.5,142C 811.007,146.14 852.507,174.64 877,227.5C 881.73,239.421 884.73,251.754 886,264.5C 887.625,422.826 887.958,581.159 887,739.5C 886.064,800.922 857.898,844.422 802.5,870C 785.104,876.612 767.104,880.279 748.5,881C 587.162,881.918 425.829,881.585 264.5,880C 193.007,868.507 151.507,827.007 140,755.5C 138.869,672.675 138.369,589.842 138.5,507C 138.366,424.824 138.866,342.657 140,260.5C 151.082,200.748 185.915,162.581 244.5,146C 254.572,143.995 264.572,142.495 274.5,141.5 Z"/></g>
<g><path style="opacity:1" fill="#fefefe" d="M 648.5,621.5 C 652.809,616.89 656.642,611.89 660,606.5C 660.944,603.653 660.444,601.153 658.5,599C 654.708,597.219 650.708,596.386 646.5,596.5C 600.376,602.372 558.042,618.206 519.5,644C 517.167,644.667 514.833,644.667 512.5,644C 453.375,622.959 395.041,599.959 337.5,575C 331.725,572.964 325.892,571.131 320,569.5C 315.069,570.549 310.569,572.549 306.5,575.5C 330.836,592.008 356.169,607.008 382.5,620.5C 340.335,621.665 298.002,621.831 255.5,621C 235.982,619.325 219.816,611.158 207,596.5C 187.289,574.945 182.289,550.278 192,522.5C 201.544,495.448 220.378,479.448 248.5,474.5C 244.381,430.227 262.381,398.727 302.5,380C 323.001,373.235 343.667,372.735 364.5,378.5C 369.043,326.211 393.71,286.711 438.5,260C 477.008,240.824 517.008,237.158 558.5,249C 629.274,273.62 664.94,323.453 665.5,398.5C 712.459,387.537 750.292,401.204 779,439.5C 792.37,461.183 796.536,484.516 791.5,509.5C 799.289,510.767 806.956,512.6 814.5,515C 826.239,521.419 833.406,531.252 836,544.5C 840.515,588.981 820.681,614.481 776.5,621C 733.835,621.5 691.168,621.667 648.5,621.5 Z"/></g>
<g><path style="opacity:1" fill="#0c2459" d="M 648.5,621.5 C 639.192,630.976 628.859,639.143 617.5,646C 602.513,654.991 587.18,663.158 571.5,670.5C 635.01,697.951 698.676,725.117 762.5,752C 763.727,753.587 763.394,754.921 761.5,756C 757.004,758.836 752.17,760.669 747,761.5C 719.512,756.044 692.512,748.711 666,739.5C 616.613,722.483 567.613,704.483 519,685.5C 460.013,707.576 401.18,730.076 342.5,753C 334.711,753.811 327.044,753.144 319.5,751C 318.841,735.563 318.174,720.063 317.5,704.5C 305.335,697.585 293.335,690.418 281.5,683C 277.185,680.831 276.852,678.497 280.5,676C 284.463,673.17 288.796,671.837 293.5,672C 305.68,678.256 318.013,684.256 330.5,690C 335.672,693.085 340.672,696.419 345.5,700C 353.047,708.043 360.38,716.21 367.5,724.5C 405.12,707.023 442.12,688.523 478.5,669C 445.509,654.671 413.509,638.505 382.5,620.5C 356.169,607.008 330.836,592.008 306.5,575.5C 310.569,572.549 315.069,570.549 320,569.5C 325.892,571.131 331.725,572.964 337.5,575C 395.041,599.959 453.375,622.959 512.5,644C 514.833,644.667 517.167,644.667 519.5,644C 558.042,618.206 600.376,602.372 646.5,596.5C 650.708,596.386 654.708,597.219 658.5,599C 660.444,601.153 660.944,603.653 660,606.5C 656.642,611.89 652.809,616.89 648.5,621.5 Z"/></g>
</svg>
